<?xml version="1.0" encoding="UTF-8"?>
<svg width="427px" height="76px" viewBox="0 0 427 76" version="1.1" xmlns="http://www.w3.org/2000/svg" xmlns:xlink="http://www.w3.org/1999/xlink">
    <!-- Generator: Sketch 52.6 (67491) - http://www.bohemiancoding.com/sketch -->
    <title>Group 17 Copy 2</title>
    <desc>Created with Sketch.</desc>
    <g id="Page-1" stroke="none" stroke-width="1" fill="none" fill-rule="evenodd">
        <g id="Group-17-Copy-2">
            <g id="Group-16">
                <g id="Group-14">
                    <g id="Group-15">
                        <path d="M105,1.85365854 L105,20.2868636 L155.359991,20.2868636 C158.287994,20.2868636 159.751995,21.7858033 159.751995,24.7836827 C159.751995,27.7815621 158.287994,29.2296719 155.359991,29.1280121 L105,29.1280121 L105,76 L127.5,76 L127.5,47.5248722 C145.746055,47.5248722 157.694844,47.5248722 163.346367,47.5248722 C171.823652,47.5248722 180,42.2819585 180,36.291309 C180,30.3006594 180,27.3130127 180,17.8323837 C180,8.35175475 170.299346,1.85365854 163.346367,1.85365854 C158.711048,1.85365854 139.262259,1.85365854 105,1.85365854 Z" id="Path" fill="#000000"></path>
                        <path d="M187,1.85365854 L187,20.2868636 L237.359991,20.2868636 C240.287994,20.2868636 241.751995,21.7858033 241.751995,24.7836827 C241.751995,27.7815621 240.287994,29.2296719 237.359991,29.1280121 L187,29.1280121 L187,76 L209.5,76 L209.5,47.5248722 C227.746055,47.5248722 239.694844,47.5248722 245.346367,47.5248722 C253.823652,47.5248722 262,42.2819585 262,36.291309 C262,30.3006594 262,27.3130127 262,17.8323837 C262,8.35175475 252.299346,1.85365854 245.346367,1.85365854 C240.711048,1.85365854 221.262259,1.85365854 187,1.85365854 Z" id="Path-Copy-40" fill="#000000"></path>
                        <path d="M343.229466,20.0417751 L289.613189,20.9686044 L289.613189,57.4428612 L406.270159,57.4428612 L406.270159,46.2909251 C385.599869,46.2909251 372.35093,46.2909251 366.523343,46.2909251 C357.781962,46.2909251 349.550394,43.1314128 349.550394,36.0908516 C349.550394,29.0502904 349.550394,23.4695394 349.550394,18.2932575 C349.550394,6.8576144 358.4131,1.85365854 366.523343,1.85365854 C371.930171,1.85365854 392.088697,1.85365854 426.998919,1.85365854 L426.998919,20.9686044 L370.908542,20.9686044 L370.908542,30.6621251 C391.725923,30.6621251 404.686685,30.6621251 409.790827,30.6621251 C417.44704,30.6621251 426.998919,33.7120742 426.998919,44.5944772 C426.998919,49.2284611 426.998919,56.2236768 426.998919,63.989029 C426.998919,68.3734822 417.457546,76 409.790827,76 C402.124107,76 293.602645,76 284.901789,76 C276.200933,76 269,70.5098235 269,59.7658081 C269,49.0217926 269,27.1102308 269,17.711658 C269,8.31308524 276.040334,1.85365854 284.901789,1.85365854 C290.809425,1.85365854 310.251984,1.85365854 343.229466,1.85365854 L343.229466,20.0417751 Z" id="Path-2" fill="#000000"></path>
                        <g id="Group-11-Copy">
                            <path d="M14.090218,5.95175436e-12 L25.9462697,1.09636744e-11 C32.5628516,1.3753894e-11 37.9309359,5.35568423 37.9462376,11.9722485 L37.9665509,20.7558516 C37.9818776,27.3832509 32.6217337,32.7682443 25.9943345,32.783571 C25.2511648,32.7852897 24.5094422,32.7179671 23.7787268,32.5824711 L10.6538017,30.148725 C4.49986827,29.0076053 0.0326290855,23.6433906 0.0239915781,17.3845587 L0.0194452013,14.0902046 C0.00872072372,6.31913135 6.29972638,0.0107378768 14.0707996,1.33991803e-05 C14.0772724,4.46639847e-06 14.0837452,5.94806008e-12 14.090218,5.95079541e-12 Z" id="Path-9" fill="#000000"></path>
                            <path d="M46.0248506,12.025966 L46.057041,27.6023987 C46.0680044,32.907429 49.8436943,37.4577076 55.0556588,38.4470973 L73.0151167,41.8563495 C77.1221057,42.6359811 81.0834945,39.938625 81.8631261,35.831636 C81.9514093,35.3665724 81.9958711,34.8942525 81.9959271,34.4208837 L82,10.0011668 C82.0006535,4.47831931 77.5240308,0.00063705551 72.0011834,-1.64708529e-05 C72.0007889,-1.65175273e-05 72.0003945,-1.65408645e-05 72.0000001,-1.65408645e-05 L58.0248249,0.00116670329 C51.3974079,0.00116670329 46.0248249,5.37374971 46.0248249,12.0011667 C46.0248249,12.0094331 46.0248335,12.0176996 46.0248506,12.025966 Z" id="Path-10" fill="#74BFF0"></path>
                            <path d="M10.0745267,76 L24.9861512,76 C31.0612834,76 35.9861512,71.0751322 35.9861512,65 C35.9861512,64.9953866 35.9861483,64.9907733 35.9861425,64.9861599 L35.9683572,50.8505763 C35.961661,45.5284383 32.1456946,40.9744644 26.9068448,40.036568 L12.9703375,37.5415548 C6.99028201,36.4709625 1.27460263,40.4508688 0.204010313,46.4309243 C0.0879009414,47.0794816 0.0302962289,47.7371594 0.0318908719,48.3960262 L0.0745560202,66.0242027 C0.0878999561,71.5375847 4.56112863,76 10.0745267,76 Z" id="Path-11" fill="#74BFF0"></path>
                            <path d="M52.0289266,76 L72,76.0014175 C77.5228475,76.0014175 82,71.524265 82,66.0014175 C82,66.000945 82,66.0004724 81.9999999,65.9999999 L81.9975148,58.4686206 C81.99696,54.5548996 79.164941,51.2161404 75.303742,50.5771144 L53.3826457,46.9491864 C49.0236608,46.2277771 44.9051876,49.1766147 44.1837783,53.5355996 C44.1138997,53.9578281 44.0780154,54.3849833 44.0764707,54.8129524 L44.0289787,67.9711257 C44.0130319,72.3893749 47.5818031,75.984001 52.0000523,75.9999479 C52.009677,75.9999826 52.0193018,76 52.0289266,76 Z" id="Path-12" fill="#74BFF0"></path>
                        </g>
                    </g>
                </g>
                <rect id="Rectangle-Copy-44" fill="#000000" x="187" y="32.4390244" width="22" height="23.1707317"></rect>
            </g>
            <rect id="Rectangle" fill="#FFFFFF" x="338" y="0" width="10" height="57"></rect>
        </g>
    </g>
</svg>