<?xml version="1.0" encoding="UTF-8"?>
<svg width="429px" height="82px" viewBox="0 0 429 82" version="1.1" xmlns="http://www.w3.org/2000/svg" xmlns:xlink="http://www.w3.org/1999/xlink">
    <!-- Generator: Sketch 52.6 (67491) - http://www.bohemiancoding.com/sketch -->
    <title>Group 17</title>
    <desc>Created with Sketch.</desc>
    <g id="Page-1" stroke="none" stroke-width="1" fill="none" fill-rule="evenodd">
        <g id="Group-17">
            <g id="Group-16">
                <g id="Group-14">
                    <g id="Group-15">
                        <path d="M106,2 L106,21.8884581 L156.359991,21.8884581 C159.287994,21.8884581 160.751995,23.5057351 160.751995,26.7402892 C160.751995,29.9748433 159.287994,31.5372776 156.359991,31.427592 L106,31.427592 L106,82 L128.5,82 L128.5,51.2768358 C146.746055,51.2768358 158.694844,51.2768358 164.346367,51.2768358 C172.823652,51.2768358 181,45.6200078 181,39.1564123 C181,32.6928168 181,29.4693032 181,19.2402035 C181,9.01110381 171.299346,2 164.346367,2 C159.711048,2 140.262259,2 106,2 Z" id="Path" fill="#000000"></path>
                        <path d="M189,2 L189,21.8884581 L239.359991,21.8884581 C242.287994,21.8884581 243.751995,23.5057351 243.751995,26.7402892 C243.751995,29.9748433 242.287994,31.5372776 239.359991,31.427592 L189,31.427592 L189,82 L211.5,82 L211.5,51.2768358 C229.746055,51.2768358 241.694844,51.2768358 247.346367,51.2768358 C255.823652,51.2768358 264,45.6200078 264,39.1564123 C264,32.6928168 264,29.4693032 264,19.2402035 C264,9.01110381 254.299346,2 247.346367,2 C242.711048,2 223.262259,2 189,2 Z" id="Path-Copy-40" fill="#000000"></path>
                        <path d="M345.229466,21.6240205 L291.613189,22.6240205 L291.613189,61.9778239 L408.270159,61.9778239 L408.270159,49.9454719 C387.599869,49.9454719 374.35093,49.9454719 368.523343,49.9454719 C359.781962,49.9454719 351.550394,46.5365244 351.550394,38.9401294 C351.550394,31.3437343 351.550394,25.3223978 351.550394,19.737462 C351.550394,7.39900501 360.4131,2 368.523343,2 C373.930171,2 394.088697,2 428.998919,2 L428.998919,22.6240205 L372.908542,22.6240205 L372.908542,33.0828192 C393.725923,33.0828192 406.686685,33.0828192 411.790827,33.0828192 C419.44704,33.0828192 428.998919,36.3735537 428.998919,48.1150938 C428.998919,53.1149185 428.998919,60.6623881 428.998919,69.0407945 C428.998919,73.7713887 419.457546,82 411.790827,82 C404.124107,82 295.602645,82 286.901789,82 C278.200933,82 271,76.0763886 271,64.4841613 C271,52.8919341 271,29.2505122 271,19.1099468 C271,8.96938144 278.040334,2 286.901789,2 C292.809425,2 312.251984,2 345.229466,2 L345.229466,21.6240205 Z" id="Path-2" fill="#000000"></path>
                        <g id="Group-11-Copy">
                            <path d="M15.2026016,6.92859955e-12 L25.9442436,1.18287602e-11 C32.5616182,1.48426556e-11 37.9300323,5.3569197 37.9442161,11.9742791 L37.9685547,23.3293635 C37.98276,29.9567653 32.621705,35.3408516 25.9943032,35.3550569 C25.1952224,35.3567697 24.3979685,35.2786622 23.6144138,35.1218976 L10.4749176,32.4930985 C4.40492752,31.2786848 0.0331952635,25.9526216 0.0252774566,19.7623455 L0.0194452013,15.2025892 C0.00871964072,6.81716343 6.79775552,0.0107379806 15.1831813,1.24200088e-05 C15.1896547,4.14000841e-06 15.1961282,6.92483758e-12 15.2026016,6.92779167e-12 Z" id="Path-9" fill="#000000"></path>
                            <path d="M46.0230287,12.0242435 L46.0583732,30.4770654 C46.0685971,35.8148126 49.8264577,40.4113647 55.0556588,41.4823944 L73.0151167,45.1607981 C77.0621281,45.9896952 81.0148329,43.3808981 81.8437299,39.3338867 C81.9448298,38.8402763 81.9957956,38.3377136 81.9958509,37.8338561 L82,10.0012589 C82.0006057,4.47841141 77.5239443,0.000767908885 72.0010968,0.000162201523 C72.0007312,0.000162161429 72.0003656,0.000162141382 72.0000001,0.000162141382 L58.0230067,0.00125881144 C51.3955897,0.00125881144 46.0230067,5.37384181 46.0230067,12.0012588 C46.0230067,12.0089204 46.0230141,12.0165819 46.0230287,12.0242435 Z" id="Path-10" fill="#74BFF0"></path>
                            <path d="M10.0762935,82 L24.9871651,82 C31.0622974,82 35.9871651,77.0751322 35.9871651,71 C35.9871651,70.9957242 35.9871626,70.9914484 35.9871576,70.9871726 L35.9673638,54.0132238 C35.9612231,48.747318 32.2239152,44.2243997 27.053578,43.2256928 L13.1161448,40.533526 C7.15127153,39.3813459 1.38175982,43.2828045 0.229579676,49.2476777 C0.0952250899,49.9432357 0.0283766515,50.650146 0.0299657556,51.3585594 L0.0763186992,72.0224318 C0.0886878052,77.5365073 4.56220419,82 10.0762935,82 Z" id="Path-11" fill="#74BFF0"></path>
                            <path d="M52.0268065,82 L72,82.0013138 C77.5228475,82.0013138 82,77.5241613 82,72.0013138 C82,72.0008758 82,72.0004379 81.9999999,71.9999999 L81.997433,62.4622734 C81.9969238,58.5868723 79.218766,55.2691312 75.4037101,54.5878953 L53.4847692,50.6739368 C49.1352898,49.8972715 44.9797284,52.7936096 44.203063,57.143089 C44.1217492,57.5984625 44.0800844,58.0600306 44.078537,58.5226044 L44.0268513,73.9732384 C44.0120712,78.3914917 47.5817916,81.9851752 52.0000449,81.9999552 C52.0089654,81.9999851 52.0178859,82 52.0268065,82 Z" id="Path-12" fill="#74BFF0"></path>
                        </g>
                    </g>
                </g>
                <rect id="Rectangle" fill="#000000" x="106" y="35" width="22" height="25"></rect>
                <rect id="Rectangle-Copy-44" fill="#000000" x="189" y="35" width="22" height="25"></rect>
            </g>
            <rect id="Rectangle" fill="#FFFFFF" x="340" y="0" width="10" height="61"></rect>
        </g>
    </g>
</svg>