<?xml version="1.0" encoding="UTF-8"?>
<svg width="30px" height="30px" viewBox="0 0 30 30" version="1.1" xmlns="http://www.w3.org/2000/svg" xmlns:xlink="http://www.w3.org/1999/xlink">
    <!-- Generator: Sketch 52.6 (67491) - http://www.bohemiancoding.com/sketch -->
    <title>Facebook-black</title>
    <desc>Created with Sketch.</desc>
    <g id="Page-1" stroke="none" stroke-width="1" fill="none" fill-rule="evenodd">
        <path d="M16.023972,30 L1.6557697,30 C0.74104541,30 0,29.2584947 0,28.3441267 L0,1.65575685 C0,0.741156065 0.741161817,0 1.6557697,0 L28.3443467,0 C29.2587218,0 30,0.741156065 30,1.65575685 L30,28.3441267 C30,29.2586111 29.2586054,30 28.3443467,30 L20.6995658,30 L20.6995658,18.3823467 L24.5990757,18.3823467 L25.182972,13.854741 L20.6995658,13.854741 L20.6995658,10.9641509 C20.6995658,9.65330457 21.0635697,8.76000605 22.943306,8.76000605 L25.3408196,8.7589584 L25.3408196,4.70943159 C24.9261787,4.65425522 23.5029897,4.53098142 21.84722,4.53098142 C18.3905214,4.53098142 16.023972,6.64095391 16.023972,10.5157555 L16.023972,13.854741 L12.1144511,13.854741 L12.1144511,18.3823467 L16.023972,18.3823467 L16.023972,30 L16.023972,30 Z" id="Facebook" fill="#111111"></path>
    </g>
</svg>