<?xml version="1.0" encoding="UTF-8"?>
<svg width="30px" height="26px" viewBox="0 0 30 26" version="1.1" xmlns="http://www.w3.org/2000/svg" xmlns:xlink="http://www.w3.org/1999/xlink">
    <!-- Generator: Sketch 52.6 (67491) - http://www.bohemiancoding.com/sketch -->
    <title>Twitter-black</title>
    <desc>Created with Sketch.</desc>
    <g id="Page-1" stroke="none" stroke-width="1" fill="none" fill-rule="evenodd">
        <path d="M26.4659271,4.11079812 C27.7372777,3.29953052 28.7128015,2.01314554 29.1723895,0.480751174 C27.9820391,1.23192488 26.6666667,1.77840376 25.2614897,2.0713615 C24.1415742,0.796244131 22.5409403,0 20.7695017,0 C17.3727769,0 14.61701,2.93896714 14.61701,6.56338028 C14.61701,7.07793427 14.6698362,7.57746479 14.7754886,8.05821596 C9.66015144,7.78403756 5.12590245,5.17370892 2.08839584,1.19812207 C1.55837295,2.17089202 1.25550273,3.29953052 1.25550273,4.50140845 C1.25550273,6.77746479 2.34196161,8.78685446 3.99366086,9.96431925 C2.98644127,9.93239437 2.03556964,9.63380282 1.2044374,9.14553991 L1.2044374,9.22629108 C1.2044374,12.4075117 3.32628984,15.0610329 6.14368727,15.6619718 C5.62775136,15.8159624 5.08364149,15.8929577 4.52192287,15.8929577 C4.12572636,15.8929577 3.73833421,15.8535211 3.36326818,15.7765258 C4.14685684,18.3830986 6.41838352,20.2816901 9.11251981,20.3323944 C7.00651523,22.0938967 4.35111815,23.143662 1.46856841,23.143662 C0.972002113,23.143662 0.480718436,23.113615 0,23.0535211 C2.72407114,24.9126761 5.96055644,26 9.43475964,26 C20.7571756,26 26.9466455,16 26.9466455,7.3258216 C26.9466455,7.04037559 26.9413629,6.75492958 26.9307977,6.47511737 C28.1334742,5.54929577 29.1776721,4.3943662 30,3.07793427 C28.8976933,3.6 27.7108646,3.95305164 26.4659271,4.11079812 Z" id="Twitter" fill="#111111"></path>
    </g>
</svg>