<?xml version="1.0" encoding="UTF-8"?>
<svg width="30px" height="30px" viewBox="0 0 30 30" version="1.1" xmlns="http://www.w3.org/2000/svg" xmlns:xlink="http://www.w3.org/1999/xlink">
    <!-- Generator: Sketch 52.6 (67491) - http://www.bohemiancoding.com/sketch -->
    <title>Instagram-black</title>
    <desc>Created with Sketch.</desc>
    <g id="Page-1" stroke="none" stroke-width="1" fill="none" fill-rule="evenodd">
        <path d="M15.0000298,0 C19.0737554,0 19.5845713,0.0172673522 21.1844808,0.0902665722 C22.7810559,0.163087164 23.8714594,0.416679071 24.82557,0.787510346 C25.8119526,1.17078602 26.6484665,1.68368592 27.48242,2.51757995 C28.3163141,3.35153352 28.829214,4.18804742 29.2125492,5.17443003 C29.5833209,6.12854055 29.8369128,7.21894407 29.9097334,8.81551918 C29.9827326,10.4154287 30,10.9262446 30,15.0000298 C30,19.0737554 29.9827326,19.5845713 29.9097334,21.1844808 C29.8369128,22.7810559 29.5833209,23.8714594 29.2125492,24.82557 C28.829214,25.8119526 28.3163141,26.6484665 27.48242,27.48242 C26.6484665,28.3163141 25.8119526,28.829214 24.82557,29.2125492 C23.8714594,29.5833209 22.7810559,29.8369128 21.1844808,29.9097334 C19.5845713,29.9827326 19.0737554,30 15.0000298,30 C10.9262446,30 10.4154287,29.9827326 8.81551918,29.9097334 C7.21894407,29.8369128 6.12854055,29.5833209 5.17443003,29.2125492 C4.18804742,28.829214 3.35153352,28.3163141 2.51757995,27.48242 C1.68368592,26.6484665 1.17078602,25.8119526 0.787510346,24.82557 C0.416679071,23.8714594 0.163087164,22.7810559 0.0902665722,21.1844808 C0.0172673522,19.5845713 0,19.0737554 0,15.0000298 C0,10.9262446 0.0172673522,10.4154287 0.0902665722,8.81551918 C0.163087164,7.21894407 0.416679071,6.12854055 0.787510346,5.17443003 C1.17078602,4.18804742 1.68368592,3.35153352 2.51757995,2.51757995 C3.35153352,1.68368592 4.18804742,1.17078602 5.17443003,0.787510346 C6.12854055,0.416679071 7.21894407,0.163087164 8.81551918,0.0902665722 C10.4154287,0.0172673522 10.9262446,0 15.0000298,0 Z M15.0000298,2.70269787 C10.9948377,2.70269787 10.5204023,2.71800032 8.93871281,2.79016595 C7.47622762,2.85685365 6.68198896,3.10121646 6.15342936,3.3066384 C5.453268,3.57874806 4.95358655,3.90379108 4.42871858,4.42871858 C3.90379108,4.95358655 3.57874806,5.453268 3.3066384,6.15342936 C3.10121646,6.68198896 2.85685365,7.47622762 2.79016595,8.93871281 C2.71800032,10.5204023 2.70269787,10.9948377 2.70269787,15.0000298 C2.70269787,19.0051623 2.71800032,19.4795977 2.79016595,21.0612872 C2.85685365,22.5237724 3.10121646,23.318011 3.3066384,23.8465706 C3.57874806,24.546732 3.90385062,25.0464135 4.42871858,25.5712814 C4.95358655,26.0962089 5.453268,26.4212519 6.15342936,26.6933616 C6.68198896,26.8987835 7.47622762,27.1431463 8.93871281,27.2098341 C10.5202236,27.2819997 10.9945399,27.2973021 15.0000298,27.2973021 C19.0054601,27.2973021 19.4798359,27.2819997 21.0612872,27.2098341 C22.5237724,27.1431463 23.318011,26.8987835 23.8465706,26.6933616 C24.546732,26.4212519 25.0464135,26.0962089 25.5712814,25.5712814 C26.0962089,25.0464135 26.4212519,24.546732 26.6933616,23.8465706 C26.8987835,23.318011 27.1431463,22.5237724 27.2098341,21.0612872 C27.2819997,19.4795977 27.2973021,19.0051623 27.2973021,15.0000298 C27.2973021,10.9948377 27.2819997,10.5204023 27.2098341,8.93871281 C27.1431463,7.47622762 26.8987835,6.68198896 26.6933616,6.15342936 C26.4212519,5.453268 26.0962089,4.95358655 25.5712814,4.42871858 C25.0464135,3.90379108 24.546732,3.57874806 23.8465706,3.3066384 C23.318011,3.10121646 22.5237724,2.85685365 21.0612872,2.79016595 C19.4795977,2.71800032 19.0051623,2.70269787 15.0000298,2.70269787 Z M15.0000298,7.29730213 C19.2541099,7.29730213 22.7026979,10.7458901 22.7026979,15.0000298 C22.7026979,19.2541099 19.2541099,22.7026979 15.0000298,22.7026979 C10.7458901,22.7026979 7.29730213,19.2541099 7.29730213,15.0000298 C7.29730213,10.7458901 10.7458901,7.29730213 15.0000298,7.29730213 Z M15.0000298,20 C17.7614366,20 20,17.7614366 20,15.0000298 C20,12.2385634 17.7614366,10 15.0000298,10 C12.2385634,10 10,12.2385634 10,15.0000298 C10,17.7614366 12.2385634,20 15.0000298,20 Z M24.8070522,6.99297993 C24.8070522,7.98710307 24.0011432,8.79295254 23.0070201,8.79295254 C22.0129565,8.79295254 21.2070475,7.98710307 21.2070475,6.99297993 C21.2070475,5.99885678 22.0129565,5.19294778 23.0070201,5.19294778 C24.0011432,5.19294778 24.8070522,5.99885678 24.8070522,6.99297993 Z" id="Instagram" fill="#111111"></path>
    </g>
</svg>